<?xml version="1.0" encoding="UTF-8" standalone="no"?>
<!-- Created with Inkscape (http://www.inkscape.org/) -->

<svg
   width="100mm"
   height="100mm"
   viewBox="0 0 100 100"
   version="1.1"
   id="svg1"
   inkscape:version="1.4 (e7c3feb100, 2024-10-09)"
   sodipodi:docname="favicon.svg"
   xmlns:inkscape="http://www.inkscape.org/namespaces/inkscape"
   xmlns:sodipodi="http://sodipodi.sourceforge.net/DTD/sodipodi-0.dtd"
   xmlns:xlink="http://www.w3.org/1999/xlink"
   xmlns="http://www.w3.org/2000/svg"
   xmlns:svg="http://www.w3.org/2000/svg">
  <sodipodi:namedview
     id="namedview1"
     pagecolor="#ffffff"
     bordercolor="#cccccc"
     borderopacity="1"
     inkscape:showpageshadow="0"
     inkscape:pageopacity="1"
     inkscape:pagecheckerboard="0"
     inkscape:deskcolor="#d1d1d1"
     inkscape:document-units="mm"
     inkscape:zoom="1.1351306"
     inkscape:cx="104.39328"
     inkscape:cy="166.94115"
     inkscape:window-width="1910"
     inkscape:window-height="1052"
     inkscape:window-x="1920"
     inkscape:window-y="0"
     inkscape:window-maximized="1"
     inkscape:current-layer="layer1" />
  <defs
     id="defs1">
    <linearGradient
       id="linearGradient16"
       inkscape:collect="always">
      <stop
         style="stop-color:#ffff00;stop-opacity:0;"
         offset="0"
         id="stop16" />
      <stop
         style="stop-color:#ffff00;stop-opacity:1;"
         offset="1"
         id="stop17" />
    </linearGradient>
    <radialGradient
       inkscape:collect="always"
       xlink:href="#linearGradient16"
       id="radialGradient17"
       cx="0"
       cy="197"
       fx="0"
       fy="197"
       r="35"
       gradientUnits="userSpaceOnUse" />
  </defs>
  <g
     inkscape:label="Calque 1"
     inkscape:groupmode="layer"
     id="layer1"
     transform="translate(0,-197)">
    <path
       id="path16"
       style="opacity:0.386307;fill:url(#radialGradient17);fill-opacity:1;stroke:none;stroke-width:1.815;stroke-linecap:round;stroke-miterlimit:3.3;stroke-dasharray:none;stroke-opacity:1"
       d="M 0 197 L 0 231.99993 A 35 35 0 0 0 34.999931 197 L 0 197 z " />
    <rect
       style="opacity:0.959491;fill:#808080;fill-opacity:1;stroke:#000000;stroke-width:4.465;stroke-linecap:round;stroke-miterlimit:3.3;stroke-dasharray:none;stroke-opacity:1"
       id="rect16"
       width="55"
       height="55"
       x="42.767502"
       y="239.7675"
       ry="0" />
    <g
       id="g16">
      <path
         style="opacity:0.959491;fill:#008fff;fill-opacity:1;stroke:none;stroke-width:0.401696;stroke-linecap:round;stroke-miterlimit:3.3;stroke-opacity:1"
         id="path1"
         d="m 21.164945,255.9685 c 0.07481,1.01702 0.179109,2.03196 0.289561,3.04575 0.134116,2.08869 0.303657,4.17491 0.471853,6.26122 0.257292,2.92927 0.248935,5.87224 0.242037,8.81012 0.03359,3.5485 -0.08211,7.09469 -0.259474,10.6381 -0.06972,1.41844 -0.114805,2.83841 -0.120696,4.25863 -0.0015,0.36364 0.02,0.7275 0.0064,1.09088 -0.019,0.50871 -0.105767,1.09823 -0.172523,1.60897 -0.641899,0.90364 -0.336376,0.49607 -0.907181,1.22968 0,0 -0.0707,0.0364 -0.0707,0.0364 v 0 c -0.59765,-0.12948 -0.277668,-0.0431 -0.954893,-0.27695 -0.09578,-0.50014 -0.187272,-0.89736 -0.208808,-1.42013 -0.01518,-0.36849 0.0075,-0.73759 0.01509,-1.10632 0.02962,-1.44189 0.119611,-2.87964 0.215789,-4.31849 0.260991,-3.55297 0.326049,-7.11238 0.36062,-10.67405 0.02505,-2.92792 -0.02657,-5.85539 -0.264754,-8.77531 -0.170876,-2.07643 -0.384803,-4.14931 -0.532709,-6.22759 -0.07051,-1.02549 -0.178065,-2.0483 -0.226954,-3.07536 z" />
      <path
         style="opacity:0.959491;fill:#008fff;fill-opacity:1;stroke:none;stroke-width:0.381706;stroke-linecap:round;stroke-miterlimit:3.3;stroke-opacity:1"
         id="path2"
         d="m 4.9383241,275.7095 c 0.8916896,-0.18573 1.7950851,-0.27757 2.6900874,-0.4405 1.6952875,-0.39825 3.4142585,-0.64338 5.1362365,-0.83894 2.421075,-0.2958 4.858133,-0.29539 7.289832,-0.34001 1.960058,1.5e-4 3.921563,0.0159 5.875911,0.20126 1.163469,0.1102 1.813534,0.20862 2.974775,0.36386 2.596542,0.40515 5.18162,0.90124 7.759332,1.43579 0.585434,0.12935 1.173232,0.24437 1.760089,0.36513 0.101039,0.0208 0.202034,0.042 0.303037,0.0628 0.06761,0.0139 0.187594,-0.0329 0.202786,0.0423 0.01909,0.0947 -0.09705,0.16063 -0.145593,0.24094 -0.460656,0.51189 -0.14153,0.18277 -1.02224,0.90179 0,0 -0.05906,0.0449 -0.05906,0.0449 v 0 c -0.958657,0.71818 -0.54154,0.45633 -1.218138,0.8488 -0.132345,0.0608 -0.256784,0.15094 -0.397013,0.1823 -0.06477,0.0143 -0.128677,-0.0335 -0.192987,-0.0504 -0.09562,-0.0252 -0.191221,-0.0503 -0.286744,-0.0761 -0.551613,-0.14773 -1.101545,-0.30326 -1.65432,-0.44555 -2.498811,-0.63858 -5.025495,-1.13835 -7.560722,-1.55594 -2.89045,-0.39348 -5.797011,-0.64625 -8.710956,-0.62448 -2.370086,0.001 -4.744016,0.0332 -7.108523,0.2283 -1.6795423,0.20544 -3.3516104,0.46362 -5.020871,0.75583 -0.8176491,0.11047 -1.6441503,0.2234 -2.4683229,0.20907 z" />
      <path
         style="opacity:0.959491;fill:#008fff;fill-opacity:1;stroke:none;stroke-width:0.401696;stroke-linecap:round;stroke-miterlimit:3.3;stroke-opacity:1"
         id="path4"
         d="m 8.5442565,268.46315 c 0.4820001,0.76144 1.0517587,1.4667 1.6308505,2.15615 0.543373,0.66276 1.084541,1.32772 1.612985,2.00247 0.44739,0.54403 0.886127,1.09825 1.384215,1.5974 0.203192,0.21552 0.416566,0.42428 0.648806,0.60862 0.196628,0.13122 -0.05594,-0.19889 0.248549,0.28857 -0.01779,0.005 -0.03766,0.005 -0.05337,0.015 -0.130095,0.0806 -0.306293,0.27463 -0.428887,0.36837 -0.100853,0.0771 -0.204632,0.15034 -0.306947,0.22553 -0.120187,0.092 -0.240379,0.18396 -0.360567,0.27595 -1.033766,0.76574 -1.98489,1.62794 -2.879494,2.5505 -0.642065,0.69823 -1.266011,1.41796 -1.816045,2.19191 -0.096246,0.14335 -0.1678339,0.27591 -0.3198744,0.35801 0,0 -3.115008,1.33 -3.115008,1.33 v 0 c -0.022964,0.005 -0.047266,0.0254 -0.068877,0.0161 -0.00127,-7.1e-4 0.026217,-0.0378 0.080875,-0.0971 0.078277,-0.0849 0.1611376,-0.16545 0.2368264,-0.25274 0.7026945,-0.75253 1.3605789,-1.54496 2.0448462,-2.31399 0.8900949,-0.93806 1.825315,-1.82914 2.8705409,-2.59516 0.2473619,-0.20002 0.3896429,-0.32178 0.6423669,-0.5026 0.172085,-0.12319 0.391893,-0.22101 0.497441,-0.41522 0.3332,0.37534 0.231413,0.27388 0.159823,0.14089 -0.199782,-0.22337 -0.408881,-0.43855 -0.615003,-0.65612 -0.452363,-0.54463 -0.894293,-1.09801 -1.3356268,-1.65157 -0.5280666,-0.67129 -1.0673245,-1.33476 -1.5548051,-2.03671 -0.5415006,-0.7349 -1.1195449,-1.44543 -1.522335,-2.27066 z" />
      <path
         style="opacity:0.959491;fill:#008fff;fill-opacity:1;stroke:none;stroke-width:0.401696;stroke-linecap:round;stroke-miterlimit:3.3;stroke-opacity:1"
         id="path5"
         d="m 14.187018,291.71922 c 0.464254,-0.7535 1.004142,-1.45873 1.548941,-2.15517 0.674749,-0.80207 1.367973,-1.5883 2.037468,-2.39477 0.335459,-0.40689 0.683397,-0.80429 1.005636,-1.22192 0.09112,-0.13619 0.21501,-0.24518 0.306718,-0.3811 2.17473,-2.75664 2.453109,-1.95543 3.24768,-0.86351 0.777823,1.0105 1.801706,1.79622 2.796138,2.58054 0.944401,0.71789 1.924072,1.39065 2.921814,2.03224 0.564534,0.39675 1.201337,0.65535 1.812171,0.96681 0.0508,0.0337 0.468356,0.22119 0.461168,0.26951 -0.0153,0.1027 -0.303825,0.29845 -0.342291,0.32985 -0.331243,0.23166 -0.662485,0.46333 -0.99373,0.69498 0,0 -0.06587,0.0446 -0.06587,0.0446 v 0 c -0.349685,0.22513 -0.699371,0.45026 -1.049056,0.67539 -0.548887,0.28997 -0.591053,0.33157 -1.082964,-0.0186 -0.553613,-0.36304 -1.118565,-0.70951 -1.653298,-1.10119 -0.948993,-0.68698 -1.881788,-1.3977 -2.76638,-2.16665 -0.976709,-0.84328 -2.018949,-1.642 -2.781631,-2.69668 -0.200011,-0.31774 -0.09787,-0.16392 -0.257521,-0.39477 -0.0284,-0.0411 -0.127391,-0.0969 -0.08498,-0.12332 0.579087,-0.35979 3.27467,-2.47676 2.732075,-1.49197 -0.09949,0.14574 -0.192929,0.30141 -0.333614,0.41109 -0.32811,0.43691 -0.697298,0.84036 -1.050398,1.25722 -0.690984,0.81383 -1.402641,1.60937 -2.102509,2.41561 -0.583925,0.70554 -1.135492,1.4388 -1.68065,2.17425 z" />
      <path
         style="opacity:0.959491;fill:#008fff;fill-opacity:1;stroke:none;stroke-width:0.401696;stroke-linecap:round;stroke-miterlimit:3.3;stroke-opacity:1"
         id="path6"
         d="m 15.132237,259.07595 c 0.726023,0.54158 1.432034,1.10159 2.093822,1.72063 0.851857,0.71591 1.656775,1.48136 2.415403,2.29488 0.714735,0.73714 1.327638,1.56049 1.911763,2.40214 0.358855,0.52764 0.689387,1.07262 1.014418,1.62136 0.04073,0.0975 0.111216,0.17443 0.168241,0.25937 -0.520179,-1.05506 -0.004,-0.15273 -2.6637,1.24504 -0.03808,0.0199 0.05333,-0.0676 0.07809,-0.10284 0.122786,-0.17449 0.227155,-0.36329 0.338457,-0.54506 0.08379,-0.10645 0.16087,-0.21852 0.251394,-0.31929 0.237157,-0.26401 0.611327,-0.59675 0.865437,-0.8265 0.575781,-0.52061 1.159251,-1.03279 1.737893,-1.55021 1.008599,-0.89441 2.094273,-1.69255 3.211215,-2.44481 1.42431,-0.90594 2.838584,-1.86129 4.384045,-2.54601 0.06628,-0.0175 0.176595,-0.0951 0.15302,0.0206 0,0 -2.850412,2.10708 -2.850412,2.10708 v 0 c -0.03227,0.0794 -0.05717,0.10176 -0.142205,0.13693 -1.057364,0.55568 -2.297087,1.33521 2.674834,-1.55686 0.0844,-0.0491 -0.172888,0.0909 -0.257156,0.1402 -0.231606,0.13549 -0.451744,0.29003 -0.686734,0.41997 -1.193232,0.75705 -2.338023,1.58837 -3.432561,2.48241 -1.025647,0.87157 -2.063115,1.73368 -3.020087,2.6815 -0.683975,0.86711 -2.40138,3.53144 -3.325792,2.09689 0.04223,0.0398 -0.03607,-0.23317 -0.06003,-0.22439 -0.263896,-0.5692 -0.597106,-1.1015 -0.937642,-1.62739 -0.562363,-0.83914 -1.178924,-1.63961 -1.87631,-2.37217 -0.747916,-0.80192 -1.518404,-1.58326 -2.317896,-2.33384 -0.631384,-0.60443 -1.210547,-1.2707 -1.9072,-1.80109 z" />
      <path
         style="opacity:0.959491;fill:#008fff;fill-opacity:1;stroke:none;stroke-width:0.401696;stroke-linecap:round;stroke-miterlimit:3.3;stroke-opacity:1"
         id="path7"
         d="m 33.776715,283.41962 c -0.135695,-0.71147 -0.334211,-1.41122 -0.617556,-2.07785 -0.372833,-0.77447 -0.912335,-1.44047 -1.461916,-2.09353 -0.60325,-0.74354 -1.215083,-1.47851 -1.89785,-2.15088 -0.37645,-0.37085 -0.801335,-0.69172 -1.248658,-0.97212 -0.09966,-0.0371 -0.244622,-0.1027 -0.324673,-0.005 0.936433,-0.65595 1.864317,-1.32426 2.809296,-1.96783 0.04413,-0.0301 0.103155,-0.0287 0.152447,-0.0493 0.07131,-0.0297 0.139124,-0.0672 0.208529,-0.10122 0.3138,-0.15346 0.621332,-0.30784 0.925057,-0.48082 1.003536,-0.56381 2.908011,-1.59887 -1.613184,0.93639 -0.154512,0.0866 0.301144,-0.18675 0.448925,-0.28442 0.346444,-0.22901 0.643538,-0.4464 0.981755,-0.68834 0.722694,-0.55521 1.459429,-1.09211 2.180935,-1.64882 0.219323,-0.17838 0.456811,-0.33223 0.682047,-0.5023 0.06004,-0.0482 0.07023,-0.0732 0.128449,-0.039 0.06185,-0.008 0.123696,-0.0154 0.185541,-0.0232 0,0 2.95131,-1.4782 2.95131,-1.4782 v 0 c 0.06175,-0.007 0.123521,-0.0134 0.185278,-0.0194 0.05518,0.0577 -0.0365,0.13536 -0.07235,0.18269 -0.232282,0.2387 -0.527473,0.38008 -0.78926,0.58382 -0.787546,0.5439 -1.545082,1.13177 -2.31247,1.70372 -0.475037,0.34085 -0.944219,0.71078 -1.448361,1.00871 -1.365462,0.80691 -2.733878,1.62155 -4.12967,2.37934 -0.304964,0.15766 -0.608577,0.3174 -0.930481,0.43869 -0.07297,0.0275 -0.147381,0.051 -0.221569,0.0751 -0.05329,0.0173 -0.205322,0.0827 -0.160833,0.0487 0.848396,-0.64919 1.720408,-1.26692 2.580609,-1.90038 -0.04586,0.0939 -0.0025,0.17645 0.06546,0.25636 0.405604,0.34381 0.817337,0.68207 1.184888,1.06766 0.662576,0.69801 1.27518,1.44719 1.843048,2.22364 0.498093,0.71394 1.01303,1.43231 1.331064,2.24848 0.283703,0.6916 0.488757,1.41138 0.580783,2.15499 z" />
    </g>
    <path
       style="opacity:0.959491;fill:#ffff00;fill-opacity:1;stroke:#ff5700;stroke-width:0.410442;stroke-linecap:round;stroke-miterlimit:3.3;stroke-opacity:1"
       id="path8"
       d="m 33.422704,200.55998 c 0.282,0.65068 0.551014,1.30435 0.770102,1.9792 0.20213,0.63402 0.394987,1.27115 0.537521,1.9214 0.121381,0.67347 0.178244,1.35384 0.189828,2.03733 0.06132,0.63629 0.03392,1.26411 -0.05248,1.8954 -0.145958,0.86311 -0.377469,1.70927 -0.61359,2.55132 -0.280457,1.00269 -0.72596,1.93566 -1.195309,2.86 -0.509607,1.06857 -1.122841,2.08119 -1.819382,3.03707 -0.704058,0.89321 -1.430954,1.77121 -2.189779,2.61871 -0.812007,0.88223 -1.697731,1.69165 -2.579308,2.50282 -0.997236,0.88139 -2.040668,1.70937 -3.100282,2.51408 -0.976813,0.7323 -1.994523,1.40129 -3.075434,1.96843 -1.013203,0.50971 -2.053701,0.96134 -3.074769,1.45475 -2.044137,1.02883 -4.1722,1.87113 -6.280522,2.75693 -0.833729,0.29047 -1.6966547,0.45989 -2.5705385,0.56888 -0.7119991,0.0891 -1.4262798,0.006 -2.13925,-0.011 -0.6062533,-0.0308 -1.2217102,0.0129 -1.817997,-0.11472 -0.4740879,-0.08 -0.9271807,-0.22657 -1.3859076,-0.36462 -0.2562177,-0.13255 -0.5360037,-0.1968 -0.8061422,-0.28894 0.010042,-0.0343 -0.074959,-0.001 -0.077357,-0.0287 -0.00125,-0.0125 0.015582,-0.0216 0.025718,-0.03 0.1596472,-0.13299 0.3016738,-0.29269 0.4831818,-0.39383 0.3605953,-0.20093 0.7537172,-0.33693 1.1305748,-0.50538 0,0 0.075694,-0.0296 0.075694,-0.0296 v 0 c 1.681331,-0.66347 0.6233438,-0.14626 1.6360545,-0.79467 0.053587,-0.0343 0.086746,-0.002 0.1301762,0.0228 0.1965605,0.1185 0.3672835,0.28402 0.595062,0.34927 0.4371009,0.14722 0.8842413,0.26001 1.341293,0.32614 0.5866869,0.057 1.1761209,0.0765 1.7650619,0.0959 0.6927841,0.0351 1.3876571,0.0874 2.0773191,-0.0251 0.85127,-0.13194 1.694316,-0.31019 2.500653,-0.62176 -5.6792786,2.4494 -1.322407,0.61573 -0.04758,-0.0499 1.025124,-0.49452 2.063649,-0.95856 3.090017,-1.45039 1.100219,-0.54859 2.141619,-1.19086 3.131237,-1.92234 1.067494,-0.79337 2.109591,-1.62205 3.121131,-2.48574 0.896028,-0.81478 1.800065,-1.62187 2.643996,-2.4916 0.792423,-0.8367 1.532363,-1.72287 2.269653,-2.60783 0.715058,-0.92784 1.326194,-1.93108 1.8392,-2.98463 0.467047,-0.91044 0.939036,-1.8203 1.231644,-2.80581 0.243664,-0.83366 0.475104,-1.67003 0.653738,-2.52064 0.09995,-0.61847 0.153936,-1.232 0.09722,-1.85929 0.0036,-0.672 -0.02999,-1.34534 -0.125478,-2.01075 -0.06353,-0.65323 -0.244793,-1.29173 -0.414891,-1.92383 -0.19593,-0.66821 -0.368521,-1.34748 -0.646093,-1.98695 z" />
    <path
       style="opacity:0.959491;fill:#ffff00;fill-opacity:1;stroke:#ff5700;stroke-width:0.3;stroke-linecap:round;stroke-miterlimit:3.3;stroke-opacity:1"
       id="path10"
       d="m 22.802222,228.91059 c 0.555207,0.61646 1.081558,1.25719 1.642905,1.86842 0.818488,0.94341 1.683765,1.84077 2.580238,2.70972 1.065529,0.9968 2.121516,2.00282 3.166128,3.02154 1.078336,1.06458 2.115926,2.16916 3.216037,3.21144 0.863129,0.79853 1.769554,1.55133 2.622452,2.36073 0.434179,0.48058 0.231262,0.10325 -0.471932,0.89563 -0.04934,0.0556 -0.06257,0.13486 -0.09386,0.20229 0,0 -0.05044,0.0313 -0.05044,0.0313 v 0 c -0.09513,0.0106 -0.193958,0.004 -0.285393,0.0319 -1.157862,0.35883 -0.710607,0.60662 -1.251156,0.16201 -0.821045,-0.82079 -1.670511,-1.61308 -2.465105,-2.46031 -1.042675,-1.08843 -2.079879,-2.18231 -3.136244,-3.25744 -1.047335,-1.01564 -2.140591,-1.98311 -3.156712,-3.03023 -0.874393,-0.89175 -1.750305,-1.78386 -2.541488,-2.75187 -0.523427,-0.63433 -1.046326,-1.26954 -1.52201,-1.94079 z" />
    <path
       style="opacity:0.959491;fill:#ffff00;fill-opacity:1;stroke:#ff5700;stroke-width:0.3;stroke-linecap:round;stroke-miterlimit:3.3;stroke-opacity:1"
       id="path11"
       d="m 35.13955,218.3218 c 1.005051,0.38577 1.940853,0.9365 2.878732,1.46095 1.058961,0.62075 2.141019,1.20089 3.199617,1.82202 1.45724,0.88863 2.942079,1.72981 4.41896,2.58515 1.247576,0.71385 2.518542,1.38571 3.790092,2.05559 0.07281,0.0449 0.786993,0.36131 0.77882,0.46394 -0.0087,0.10916 -0.0987,0.20017 -0.176924,0.27681 -0.201443,0.19737 -0.435827,0.35803 -0.653741,0.53705 0,0 -0.04954,0.0327 -0.04954,0.0327 v 0 c -0.275352,0.14651 -0.892267,0.54522 -1.299903,0.5855 -0.27501,0.0272 -0.645639,-0.32097 -0.877879,-0.41369 -1.202145,-0.73643 -2.416165,-1.4524 -3.636431,-2.15844 -1.475846,-0.86021 -2.977129,-1.6776 -4.427836,-2.58051 -1.048666,-0.61368 -2.117125,-1.19475 -3.130931,-1.86633 -0.880161,-0.53854 -1.781958,-1.04352 -2.648692,-1.60234 z" />
    <path
       style="opacity:0.959491;fill:#ffff00;fill-opacity:1;stroke:#ff5700;stroke-width:0.3;stroke-linecap:round;stroke-miterlimit:3.3;stroke-opacity:1"
       id="path12"
       d="m 39.594461,204.2402 c 0.81253,0.1446 1.62333,0.29949 2.430846,0.47037 0.884542,0.21585 1.755616,0.4851 2.64183,0.69442 0.561917,0.13273 1.358728,0.28943 1.921785,0.40356 1.843495,0.36713 3.701214,0.65691 5.560481,0.93078 1.249563,0.16143 2.492303,0.36734 3.738258,0.55348 -0.01818,0.0365 0.696894,0.091 0.660627,0.17485 -0.05561,0.12857 -0.18379,0.21263 -0.289089,0.30501 -0.221633,0.19446 -0.459824,0.36918 -0.689739,0.55377 0,0 -0.04971,0.0325 -0.04971,0.0325 v 0 c -0.148678,0.0869 -1.021901,0.6249 -1.321256,0.72336 -0.143541,0.0472 -0.522988,-0.14837 -0.671388,-0.13494 -1.208315,-0.23534 -2.420585,-0.44263 -3.639457,-0.61661 -1.841548,-0.29205 -3.683974,-0.59255 -5.50659,-0.98743 -0.905624,-0.20023 -1.816024,-0.39461 -2.710482,-0.6416 -0.94719,-0.26154 -0.386416,-0.14436 -1.248563,-0.37049 -0.180039,-0.0472 -0.362281,-0.0856 -0.543423,-0.12839 -0.75498,-0.16005 -1.532342,-0.28372 -2.230567,-0.62614 z" />
    <path
       style="opacity:0.959491;fill:#ffff00;fill-opacity:1;stroke:#ff5700;stroke-width:0.3;stroke-linecap:round;stroke-miterlimit:3.3;stroke-opacity:1"
       id="path13"
       d="m 9.4834376,234.22369 c 0.191151,0.67162 0.269193,1.36552 0.369761,2.05424 0.138339,0.98331 0.2644904,1.9682 0.3922254,2.95294 0.145096,1.1264 0.148596,2.26363 0.208331,3.39607 0.04177,0.95663 0.13932,1.90818 0.257417,2.85792 0.117867,0.86203 0.228982,1.72309 0.295651,2.59071 0.03293,0.64658 0.05648,1.29358 0.087,1.94029 0.0041,0.1682 0.02472,0.33646 0.02029,0.50479 -0.33539,0.35769 -0.05299,0.0759 -1.020183,0.62576 0,0 -0.05291,0.0269 -0.05291,0.0269 v 0 c -0.9556764,0.4293 -0.5892754,0.4349 -1.0192474,0.41191 -0.0027,-0.17474 0.02117,-0.34921 0.02309,-0.52394 0.02257,-0.6556 0.02692,-1.312 -0.0053,-1.96742 -0.04479,-0.86943 -0.154057,-1.73175 -0.257699,-2.59575 -0.118722,-0.95639 -0.254547,-1.91101 -0.257365,-2.87719 -0.04247,-1.12852 -0.04932,-2.26056 -0.196161,-3.38233 -0.124533,-0.98794 -0.255424,-1.97494 -0.362545,-2.96504 -0.05237,-0.37548 -0.06464,-0.42827 -0.09772,-0.80457 -0.03749,-0.42652 -0.03825,-0.8587 -0.163713,-1.2725 z" />
    <path
       style="fill:none;fill-opacity:1;stroke:#ffffff;stroke-width:4.465;stroke-linecap:butt;stroke-linejoin:miter;stroke-dasharray:none;stroke-opacity:1"
       d="m 83.095248,202.64307 v 76.1762"
       id="path14-6"
       sodipodi:nodetypes="cc" />
    <path
       style="fill:none;fill-opacity:1;stroke:#ff0000;stroke-width:4.465;stroke-linecap:butt;stroke-linejoin:miter;stroke-dasharray:none;stroke-opacity:1"
       d="m 83.095248,221.55442 v 57.26485"
       id="path14" />
    <rect
       style="opacity:0.959491;fill:#ff0000;fill-opacity:1;stroke:none;stroke-width:6.51493;stroke-linecap:round;stroke-miterlimit:3.3;stroke-dasharray:none;stroke-opacity:1"
       id="rect15"
       width="11.903458"
       height="19.260199"
       x="77.143524"
       y="269.18918"
       ry="5.9517288" />
    <path
       id="rect15-5"
       style="opacity:0.959491;fill:none;fill-opacity:1;stroke:#000000;stroke-width:1.815;stroke-linecap:round;stroke-miterlimit:3.3;stroke-dasharray:none;stroke-opacity:1"
       d="m 83.095155,202.64307 c -1.648629,0 -2.975529,1.32741 -2.975529,2.97604 v 64.36352 c -1.781078,1.02627 -2.976046,2.94698 -2.976046,5.15834 v 7.35665 c 0,3.29726 2.654317,5.95158 5.951575,5.95158 3.297258,0 5.951575,-2.65432 5.951575,-5.95158 v -7.35665 c 0,-2.21128 -1.194567,-4.13204 -2.975529,-5.15834 v -64.36352 c 0,-1.64863 -1.327417,-2.97604 -2.976046,-2.97604 z" />
    <use
       x="0"
       y="0"
       xlink:href="#g16"
       id="use16"
       transform="translate(0.52916667,0.52916667)"
       style="opacity:0.38630686" />
  </g>
</svg>
